# xmcd
# Copyright (C) 1995-1998 Ti Kan
#
# Track frame offsets:
#       150
#       21703
#       43695
#       66042
#       91552
#       108897
#       212252
#       240817
#       261333
#       283203
#
# Disc length: 4066 seconds
#
# Revision: 0
# Processed by: cddbd v1.5.2PL0 Copyright (c) Steve Scherf et al.
# Submitted via: CD-Transfer v1.0
#
DISCID=810fe00a
DTITLE=Gra¿yna £obaszewska - 
DYEAR=2007
DGENRE=
TTITLE0=Prowincja Jest Piêkna
TTITLE1=Wspinaczka Do Nieba
TTITLE2=Komañczy
TTITLE3=Piosenka O Ludziach Z Dusz¹
TTITLE4=Kochaj Naprawdê
TTITLE5=Ostatni Dzieñ Roku
TTITLE6=Moja Ma³a Nostalgia
TTITLE7=Z Potrzeby Duszy I Serca
TTITLE8=Boli Mnie ¯ycie
TTITLE9=Gdzie Zniknê³a Magia Tamtych Miejsc
EXTD=
EXTT0=
EXTT1=
EXTT2=
EXTT3=
EXTT4=
EXTT5=
EXTT6=
EXTT7=
EXTT8=
EXTT9=
PLAYORDER=
